<svg width="10" height="18" viewBox="0 0 12 20" fill="none" xmlns="http://www.w3.org/2000/svg">
<path d="M5.7414 14.0249C4.81099 14.0249 4.03943 13.2533 4.03943 12.3229V11.8465C4.03943 9.21407 5.96829 7.92054 6.69446 7.4213C7.5341 6.85398 7.8064 6.46821 7.8064 5.8782C7.8064 4.74355 6.87605 3.81306 5.7414 3.81306C4.60675 3.81306 3.6764 4.74355 3.6764 5.8782C3.6764 6.80861 2.90484 7.58017 1.97443 7.58017C1.04402 7.58017 0.272461 6.80861 0.272461 5.8782C0.272461 2.86003 2.72324 0.409119 5.7414 0.409119C8.75956 0.409119 11.2103 2.86003 11.2103 5.8782C11.2103 8.46519 9.30421 9.75865 8.60073 10.2352C7.71571 10.8252 7.44337 11.211 7.44337 11.8465V12.3229C7.44337 13.276 6.67181 14.0249 5.7414 14.0249Z" fill="#2A5E3D"/>
<path d="M5.7425 19.6759C4.78939 19.6759 4.04053 18.9044 4.04053 17.9739C4.04053 17.0435 4.81209 16.272 5.7425 16.272C6.67291 16.272 7.44447 17.0435 7.44447 17.9739C7.44447 18.9044 6.6956 19.6759 5.7425 19.6759Z" fill="#2A5E3D"/>
</svg>
