<svg width="18" height="18" viewBox="0 0 18 18" fill="none" xmlns="http://www.w3.org/2000/svg">
<path d="M13.6666 17.8H4.3333C2.81663 17.8 1.4333 16.6333 1.1833 15.1417L0.0749671 8.50001C-0.108366 7.46668 0.399967 6.14168 1.22497 5.48335L6.99997 0.858348C8.11663 -0.0416522 9.87497 -0.0333189 11 0.866681L16.775 5.48335C17.5916 6.14168 18.0916 7.46668 17.925 8.50001L16.8166 15.1333C16.5666 16.6083 15.15 17.8 13.6666 17.8ZM8.99163 1.44168C8.54997 1.44168 8.1083 1.57501 7.7833 1.83335L2.0083 6.46668C1.54163 6.84168 1.2083 7.70835 1.3083 8.30001L2.41663 14.9333C2.56663 15.8083 3.44163 16.55 4.3333 16.55H13.6666C14.5583 16.55 15.4333 15.8083 15.5833 14.925L16.6916 8.29168C16.7833 7.70835 16.45 6.82501 15.9916 6.45835L10.2166 1.84168C9.8833 1.57501 9.4333 1.44168 8.99163 1.44168Z" fill="#4D4D4D"/>
</svg>
