<svg width="20" height="20" viewBox="0 0 20 20" fill="none" xmlns="http://www.w3.org/2000/svg">
<path d="M18.3333 5.25833H10C9.65833 5.25833 9.375 4.975 9.375 4.63333C9.375 4.29166 9.65833 4.00833 10 4.00833H18.3333C18.675 4.00833 18.9583 4.29166 18.9583 4.63333C18.9583 4.98333 18.675 5.25833 18.3333 5.25833Z" fill="#4D4D4D"/>
<path d="M16.4828 9.375H11.8578C10.0328 9.375 9.38281 8.73334 9.38281 6.91667V3.50001C9.38281 1.68334 10.0328 1.04167 11.8578 1.04167H16.4828C18.3078 1.04167 18.9578 1.68334 18.9578 3.50001V6.92501C18.9578 8.73334 18.3078 9.375 16.4828 9.375ZM11.8495 2.29167C10.7161 2.29167 10.6245 2.38334 10.6245 3.50001V6.92501C10.6245 8.04167 10.7161 8.13334 11.8495 8.13334H16.4745C17.6078 8.13334 17.6995 8.04167 17.6995 6.92501V3.50001C17.6995 2.38334 17.6078 2.29167 16.4745 2.29167H11.8495Z" fill="#4D4D4D"/>
<path d="M10.0003 14.8417H1.66699C1.32533 14.8417 1.04199 14.5583 1.04199 14.2167C1.04199 13.875 1.32533 13.5917 1.66699 13.5917H10.0003C10.342 13.5917 10.6253 13.875 10.6253 14.2167C10.6253 14.5667 10.342 14.8417 10.0003 14.8417Z" fill="#4D4D4D"/>
<path d="M8.1498 18.9583H3.52481C1.69981 18.9583 1.0498 18.3167 1.0498 16.5V13.0833C1.0498 11.2667 1.69981 10.625 3.52481 10.625H8.1498C9.9748 10.625 10.6248 11.2667 10.6248 13.0833V16.5083C10.6248 18.3167 9.9748 18.9583 8.1498 18.9583ZM3.51646 11.875C2.38313 11.875 2.29146 11.9667 2.29146 13.0833V16.5083C2.29146 17.625 2.38313 17.7167 3.51646 17.7167H8.14145C9.27479 17.7167 9.36646 17.625 9.36646 16.5083V13.0833C9.36646 11.9667 9.27479 11.875 8.14145 11.875H3.51646Z" fill="#4D4D4D"/>
<path d="M12.4998 18.9583C12.2748 18.9583 12.0665 18.8333 11.9582 18.6417C11.8498 18.4417 11.8498 18.2083 11.9665 18.0083L12.8415 16.55C13.0165 16.2583 13.3998 16.1583 13.6998 16.3333C13.9998 16.5083 14.0915 16.8916 13.9165 17.1916L13.6915 17.5667C15.9915 17.025 17.7165 14.9583 17.7165 12.4917C17.7165 12.15 17.9998 11.8667 18.3415 11.8667C18.6832 11.8667 18.9665 12.15 18.9665 12.4917C18.9582 16.0583 16.0582 18.9583 12.4998 18.9583Z" fill="#4D4D4D"/>
<path d="M1.66699 8.12501C1.32533 8.12501 1.04199 7.84167 1.04199 7.50001C1.04199 3.94167 3.94199 1.04167 7.50033 1.04167C7.72533 1.04167 7.93365 1.16667 8.04199 1.35834C8.15032 1.55834 8.15034 1.79167 8.03367 1.99167L7.15866 3.45C6.98366 3.74167 6.60032 3.84167 6.30032 3.66667C6.00032 3.49167 5.90865 3.10834 6.08365 2.80834L6.30867 2.43334C4.00867 2.975 2.28365 5.04167 2.28365 7.50834C2.29198 7.84167 2.00866 8.12501 1.66699 8.12501Z" fill="#4D4D4D"/>
</svg>
