<svg width="20" height="20" viewBox="0 0 20 20" fill="none" xmlns="http://www.w3.org/2000/svg">
<path d="M15.2667 10.6251H12.5C10.425 10.6251 9.375 9.45005 9.375 7.12505V4.73339C9.375 3.88339 9.475 2.66672 10.3583 2.00005C11.1 1.45005 12.1667 1.40839 13.7417 1.86672C15.8083 2.46672 17.5333 4.19172 18.1333 6.25839C18.5917 7.82505 18.55 8.90005 18 9.63338C17.3333 10.5251 16.1167 10.6251 15.2667 10.6251ZM11.9 2.80005C11.5583 2.80005 11.2917 2.86672 11.1167 3.00005C10.7917 3.24172 10.6333 3.80839 10.6333 4.73339V7.13339C10.6333 9.00005 11.35 9.38338 12.5083 9.38338H15.275C16.1917 9.38338 16.7583 9.22505 17.0083 8.90005C17.3 8.51672 17.275 7.75005 16.95 6.62505C16.4667 4.98339 15.05 3.55839 13.4083 3.08339C12.7917 2.89172 12.2917 2.80005 11.9 2.80005Z" fill="#4D4D4D"/>
<path d="M9.22563 18.9583C8.78397 18.9583 8.33397 18.925 7.88397 18.85C4.47563 18.3 1.70063 15.5333 1.15063 12.125C0.442301 7.74164 3.2673 3.60831 7.5923 2.72497C7.93397 2.65831 8.25897 2.87497 8.33397 3.20831C8.40063 3.54997 8.18397 3.87497 7.85063 3.94997C4.1923 4.69997 1.7923 8.19997 2.40063 11.925C2.8673 14.8083 5.20897 17.15 8.0923 17.6166C11.834 18.2166 15.3256 15.8083 16.0673 12.1333C16.134 11.7916 16.4673 11.575 16.8006 11.6416C17.1423 11.7083 17.359 12.0416 17.2923 12.375C16.5006 16.2666 13.1006 18.9583 9.22563 18.9583Z" fill="#4D4D4D"/>
</svg>
