<svg width="20" height="20" viewBox="0 0 20 20" fill="none" xmlns="http://www.w3.org/2000/svg">
<path d="M13.6501 18.9583H2.7001C1.90843 18.9583 1.17511 18.5917 0.700106 17.95C0.216773 17.3 0.075113 16.4833 0.31678 15.7083L3.82511 4.43329C4.14177 3.38329 5.10845 2.66663 6.20845 2.66663H16.4584C17.4668 2.66663 18.3751 3.2667 18.7584 4.20003C18.9668 4.68337 19.0084 5.23338 18.8834 5.77505L16.0751 17.05C15.8084 18.175 14.8084 18.9583 13.6501 18.9583ZM6.21677 3.92497C5.6751 3.92497 5.18344 4.28335 5.02511 4.80835L1.51678 16.0834C1.40011 16.475 1.46677 16.8834 1.71677 17.2167C1.95011 17.5334 2.31678 17.7167 2.70844 17.7167H13.6585C14.2335 17.7167 14.7334 17.325 14.8668 16.7667L17.6751 5.4833C17.7418 5.2083 17.7251 4.93334 17.6168 4.69167C17.4168 4.21667 16.9751 3.91663 16.4668 3.91663H6.21677V3.92497Z" fill="#4D4D4D"/>
<path d="M17.3163 18.9583H13.333C12.9913 18.9583 12.708 18.675 12.708 18.3333C12.708 17.9917 12.9913 17.7083 13.333 17.7083H17.3163C17.658 17.7083 17.9747 17.5667 18.208 17.3167C18.4413 17.0667 18.558 16.7334 18.533 16.3917L17.708 5.0417C17.683 4.70003 17.9413 4.39999 18.283 4.37499C18.6247 4.35833 18.9247 4.60828 18.9497 4.94994L19.7747 16.3C19.8247 16.9834 19.583 17.6667 19.1163 18.1667C18.658 18.675 17.9997 18.9583 17.3163 18.9583Z" fill="#4D4D4D"/>
<path d="M8.06615 5.94165C8.01615 5.94165 7.96615 5.9333 7.91615 5.92497C7.58282 5.84164 7.3745 5.50827 7.45783 5.16661L8.32448 1.56665C8.40781 1.23332 8.74115 1.02494 9.08281 1.10828C9.41615 1.19161 9.6245 1.52497 9.54116 1.86664L8.67449 5.4667C8.60782 5.75003 8.34948 5.94165 8.06615 5.94165Z" fill="#4D4D4D"/>
<path d="M13.6502 5.94997C13.6085 5.94997 13.5585 5.94995 13.5169 5.93329C13.1835 5.85829 12.9669 5.52494 13.0335 5.19161L13.8168 1.57497C13.8918 1.2333 14.2252 1.02501 14.5585 1.09167C14.8919 1.15834 15.1085 1.49992 15.0418 1.83325L14.2585 5.44999C14.2002 5.74999 13.9419 5.94997 13.6502 5.94997Z" fill="#4D4D4D"/>
<path d="M13.0837 10.625H6.41699C6.07533 10.625 5.79199 10.3417 5.79199 10C5.79199 9.65833 6.07533 9.375 6.41699 9.375H13.0837C13.4253 9.375 13.7087 9.65833 13.7087 10C13.7087 10.3417 13.4253 10.625 13.0837 10.625Z" fill="#4D4D4D"/>
<path d="M12.2507 13.9583H5.58398C5.24232 13.9583 4.95898 13.675 4.95898 13.3333C4.95898 12.9917 5.24232 12.7083 5.58398 12.7083H12.2507C12.5923 12.7083 12.8757 12.9917 12.8757 13.3333C12.8757 13.675 12.5923 13.9583 12.2507 13.9583Z" fill="#4D4D4D"/>
</svg>
