<svg width="20" height="20" viewBox="0 0 20 20" fill="none" xmlns="http://www.w3.org/2000/svg">
<path d="M13.333 18.9583H6.66634C4.14967 18.9583 2.70801 17.5167 2.70801 15V6.87499C2.70801 4.24999 4.04134 2.91666 6.66634 2.91666C7.00801 2.91666 7.29134 3.19999 7.29134 3.54166C7.29134 3.87499 7.42468 4.19165 7.65801 4.42499C7.89134 4.65832 8.20801 4.79166 8.54134 4.79166H11.458C12.1497 4.79166 12.708 4.23332 12.708 3.54166C12.708 3.19999 12.9913 2.91666 13.333 2.91666C15.958 2.91666 17.2913 4.24999 17.2913 6.87499V15C17.2913 17.5167 15.8497 18.9583 13.333 18.9583ZM6.12465 4.18333C4.80799 4.29166 3.95801 4.88332 3.95801 6.87499V15C3.95801 16.85 4.81634 17.7083 6.66634 17.7083H13.333C15.183 17.7083 16.0413 16.85 16.0413 15V6.87499C16.0413 4.88332 15.1914 4.29999 13.8747 4.18333C13.5914 5.24999 12.6163 6.04166 11.458 6.04166H8.54134C7.87467 6.04166 7.24968 5.78332 6.77468 5.30832C6.45801 4.99165 6.24132 4.60833 6.12465 4.18333Z" fill="#4D4D4D"/>
<path d="M11.4587 6.04166H8.54199C7.87533 6.04166 7.25033 5.78332 6.77533 5.30832C6.30033 4.83332 6.04199 4.20832 6.04199 3.54166C6.04199 2.16666 7.16699 1.04166 8.54199 1.04166H11.4587C12.1253 1.04166 12.7503 1.29999 13.2253 1.77499C13.7003 2.24999 13.9587 2.87499 13.9587 3.54166C13.9587 4.91666 12.8337 6.04166 11.4587 6.04166ZM8.54199 2.29166C7.85033 2.29166 7.29199 2.84999 7.29199 3.54166C7.29199 3.87499 7.42533 4.19165 7.65866 4.42499C7.89199 4.65832 8.20866 4.79166 8.54199 4.79166H11.4587C12.1503 4.79166 12.7087 4.23332 12.7087 3.54166C12.7087 3.20832 12.5753 2.89166 12.342 2.65833C12.1087 2.42499 11.792 2.29166 11.4587 2.29166H8.54199Z" fill="#4D4D4D"/>
<path d="M10.0003 11.4583H6.66699C6.32533 11.4583 6.04199 11.175 6.04199 10.8333C6.04199 10.4917 6.32533 10.2083 6.66699 10.2083H10.0003C10.342 10.2083 10.6253 10.4917 10.6253 10.8333C10.6253 11.175 10.342 11.4583 10.0003 11.4583Z" fill="#4D4D4D"/>
<path d="M13.3337 14.7917H6.66699C6.32533 14.7917 6.04199 14.5083 6.04199 14.1667C6.04199 13.825 6.32533 13.5417 6.66699 13.5417H13.3337C13.6753 13.5417 13.9587 13.825 13.9587 14.1667C13.9587 14.5083 13.6753 14.7917 13.3337 14.7917Z" fill="#4D4D4D"/>
</svg>
