<svg width="20" height="20" viewBox="0 0 20 20" fill="none" xmlns="http://www.w3.org/2000/svg">
<path d="M15.2667 10.6251H12.5C10.425 10.6251 9.375 9.45005 9.375 7.12505V4.73339C9.375 3.88339 9.475 2.66672 10.3583 2.00005C11.1 1.45005 12.1667 1.40839 13.7417 1.86672C15.8083 2.46672 17.5333 4.19172 18.1333 6.25839C18.5917 7.82505 18.55 8.90005 18 9.63338C17.3333 10.5251 16.1167 10.6251 15.2667 10.6251ZM11.9 2.80005C11.5583 2.80005 11.2917 2.86672 11.1167 3.00005C10.7917 3.24172 10.6333 3.80839 10.6333 4.73339V7.13339C10.6333 9.00005 11.35 9.38338 12.5083 9.38338H15.275C16.1917 9.38338 16.7583 9.22505 17.0083 8.90005C17.3 8.51672 17.275 7.75005 16.95 6.62505C16.4667 4.98339 15.05 3.55839 13.4083 3.08339C12.7917 2.89172 12.2917 2.80005 11.9 2.80005Z" fill="#4D4D4D"/>
<path d="M9.22514 18.9583C8.78348 18.9583 8.33348 18.925 7.88348 18.85C4.47515 18.3 1.70015 15.5333 1.15015 12.125C0.441813 7.74164 3.26681 3.60831 7.59181 2.72497C7.93348 2.65831 8.25848 2.87497 8.33348 3.20831C8.40015 3.54997 8.18348 3.87497 7.85015 3.94997C4.19181 4.69997 1.79181 8.19997 2.40015 11.925C2.86681 14.8083 5.20848 17.15 8.09181 17.6166C11.8335 18.2166 15.3251 15.8083 16.0668 12.1333C16.1335 11.7916 16.4668 11.575 16.8001 11.6416C17.1418 11.7083 17.3585 12.0416 17.2918 12.375C16.5001 16.2666 13.1001 18.9583 9.22514 18.9583Z" fill="#4D4D4D"/>
</svg>
